<?xml version="1.0" encoding="UTF-8" standalone="no"?>
<svg
   xmlns:dc="http://purl.org/dc/elements/1.1/"
   xmlns:cc="http://creativecommons.org/ns#"
   xmlns:rdf="http://www.w3.org/1999/02/22-rdf-syntax-ns#"
   xmlns:svg="http://www.w3.org/2000/svg"
   xmlns="http://www.w3.org/2000/svg"
   width="694.08081"
   height="807.21729"
   viewBox="0 0 183.64221 213.57625"
   version="1.1"
   id="svg8">
  <defs
     id="defs2" />
  <metadata
     id="metadata5">
    <rdf:RDF>
      <cc:Work
         rdf:about="">
        <dc:format>image/svg+xml</dc:format>
        <dc:type
           rdf:resource="http://purl.org/dc/dcmitype/StillImage" />
        <dc:title></dc:title>
      </cc:Work>
    </rdf:RDF>
  </metadata>
  <g
     id="layer1"
     transform="translate(-42.339482,-34.98372)">
    <g
       id="g1025"
       transform="rotate(45,47.642275,125.85338)">
      <path
         id="rect924"
         style="opacity:1;fill:#222831;fill-opacity:1;stroke:none;stroke-width:19.5721"
         d="m 31.351562,146.98633 c -11.079987,0 -20,8.92001 -20,20 0,11.07999 8.920013,20 20,20 h 15.714844 c 11.080025,0 20,-8.92001 20,-20 0,-11.07999 -8.919975,-20 -20,-20 z m 85.529298,0 c -11.07999,0 -20.000001,8.92001 -20.000001,20 0,11.07999 8.920011,20 20.000001,20 h 110.98828 c 11.08003,0 20,-8.92001 20,-20 0,-11.07999 -8.91997,-20 -20,-20 z m 171.38867,0 c -11.07999,0 -20,8.92 -20,20 0,11.08 8.92001,20 20,20 h 12.33985 27.89257 c 11.08003,0 20,8.92 20,20 0,10.32889 -7.75234,18.77658 -17.77929,19.875 H 248.9082 c -11.08,0 -20,8.92001 -20,20 0,11.07999 8.92,20 20,20 h 7.29883 v 0.125 h 7.56445 94.73047 c 11.08003,0 20,8.92 20,20 0,11.08 -8.91997,20 -20,20 H 256.20703 188.74805 c -11.07999,0 -20,8.92 -20,20 0,11.08 8.92001,20 20,20 h 67.45898 33.39649 c 11.08001,0 20,8.92 20,20 0,11.08 -8.91999,20 -20,20 H 256.20703 144.3457 c -11.07999,0 -20,8.92001 -20,20 0,11.07999 8.92001,20 20,20 h 111.86133 102.29492 c 11.08003,0 20,8.92001 20,20 0,11.07999 -8.91997,20 -20,20 H 256.20703 225.49414 c -11.07999,0 -20,8.92001 -20,20 0,11.08002 8.92001,20 20,20 h 30.71289 407.32422 66.31445 c 1.47267,0 2.94032,-0.0199 4.4043,-0.0547 0.43862,-0.0104 0.87469,-0.0294 1.3125,-0.043 0.99276,-0.0307 1.98412,-0.0647 2.97266,-0.11133 0.58448,-0.0275 1.16702,-0.0627 1.75,-0.0957 0.88445,-0.0502 1.76752,-0.10519 2.64843,-0.16797 0.55018,-0.0392 1.09968,-0.0809 1.64844,-0.125 0.89203,-0.0717 1.7817,-0.15178 2.66992,-0.23633 0.58266,-0.0554 1.16511,-0.11095 1.7461,-0.17187 0.85914,-0.0902 1.71489,-0.18892 2.57031,-0.29102 0.56084,-0.0669 1.12243,-0.13112 1.68164,-0.20312 0.96988,-0.12496 1.93551,-0.26212 2.90039,-0.40235 0.44427,-0.0645 0.89077,-0.12171 1.33399,-0.18945 0.013,-0.002 0.026,-0.004 0.0391,-0.006 1.32124,-0.20237 2.63779,-0.41963 3.94922,-0.65039 0.64353,-0.11316 1.28271,-0.23944 1.92382,-0.35937 0.74385,-0.13925 1.48799,-0.27745 2.22852,-0.42579 0.65704,-0.1315 1.31045,-0.27155 1.96484,-0.41015 0.71075,-0.15062 1.42134,-0.302 2.12891,-0.46094 0.67422,-0.15136 1.34629,-0.30793 2.01758,-0.4668 0.67817,-0.16058 1.35416,-0.32594 2.02929,-0.49414 0.68429,-0.17036 1.36774,-0.34335 2.04883,-0.52148 0.64034,-0.16757 1.27853,-0.34123 1.91602,-0.51563 0.72124,-0.19719 1.44261,-0.39373 2.16015,-0.5996 0.52344,-0.15028 1.04304,-0.30805 1.56446,-0.4629 0.80081,-0.23768 1.6024,-0.47226 2.39844,-0.7207 2.18694,-0.68255 4.35223,-1.41323 6.50195,-2.17578 0.27684,-0.0983 0.55582,-0.19145 0.83203,-0.29102 0.86874,-0.31298 1.73136,-0.63897 2.59375,-0.96484 0.41015,-0.15506 0.82177,-0.30689 1.23047,-0.46484 0.83704,-0.32335 1.66914,-0.65482 2.5,-0.99024 0.39713,-0.16039 0.79376,-0.32124 1.18945,-0.48437 0.84776,-0.34935 1.69207,-0.70458 2.53321,-1.06641 0.36272,-0.1561 0.72445,-0.31422 1.08593,-0.47266 0.89738,-0.39309 1.79208,-0.79199 2.68164,-1.19921 0.15023,-0.0688 0.29922,-0.13979 0.44922,-0.20899 4.45398,-2.05386 8.80827,-4.28196 13.05469,-6.67969 0.005,-0.003 0.0106,-0.005 0.0156,-0.008 0.002,-9.9e-4 0.004,-8.6e-4 0.006,-0.002 1.00163,-0.56574 1.99491,-1.14425 2.98438,-1.72852 0.14326,-0.0846 0.28668,-0.1689 0.42969,-0.2539 0.93843,-0.55766 1.8716,-1.12312 2.79882,-1.69727 0.16835,-0.10426 0.33594,-0.20965 0.50391,-0.31445 0.96751,-0.60353 1.92978,-1.21464 2.88477,-1.83594 5.22705,-3.40066 10.26398,-7.06562 15.09375,-10.97656 14.07883,-11.40045 26.39104,-24.88488 36.47265,-40 0.007,-0.011 0.0142,-0.0222 0.0215,-0.0332 0.91659,-1.37488 1.81205,-2.76458 2.6914,-4.16601 0.11176,-0.17808 0.22283,-0.35666 0.33399,-0.53516 0.8115,-1.30345 1.60598,-2.61771 2.38476,-3.94336 0.0896,-0.1525 0.18034,-0.30423 0.26953,-0.45703 0.85549,-1.46614 1.69494,-2.94314 2.50977,-4.43554 1.64972,-3.02157 3.21299,-6.09808 4.69141,-9.22266 0.11948,-0.2524 0.23517,-0.50671 0.35351,-0.75977 0.58561,-1.25279 1.15741,-2.51275 1.71485,-3.78125 0.15687,-0.35684 0.31217,-0.7142 0.46679,-1.07226 0.53948,-1.24977 1.06435,-2.50707 1.57617,-3.77149 0.12825,-0.31672 0.26023,-0.63158 0.38672,-0.94921 0.62047,-1.55847 1.22481,-3.12528 1.80274,-4.70508 7.08229,-19.35976 10.94726,-40.29578 10.94726,-62.16797 0,-21.87219 -3.86497,-42.80821 -10.94726,-62.16797 -0.57793,-1.5798 -1.18227,-3.14663 -1.80274,-4.70508 -0.12649,-0.31764 -0.25847,-0.63249 -0.38672,-0.94922 -0.51182,-1.26441 -1.03669,-2.52172 -1.57617,-3.77148 -0.15462,-0.35807 -0.30992,-0.71543 -0.46679,-1.07227 -0.55744,-1.26849 -1.12924,-2.52845 -1.71485,-3.78125 -0.11834,-0.25305 -0.23403,-0.50736 -0.35351,-0.75976 -1.47842,-3.12458 -3.04169,-6.20109 -4.69141,-9.22266 -0.81483,-1.4924 -1.65428,-2.9694 -2.50977,-4.43555 -0.0892,-0.15279 -0.1799,-0.30452 -0.26953,-0.45703 -0.77878,-1.32565 -1.57326,-2.63991 -2.38476,-3.94336 -0.11116,-0.17849 -0.22223,-0.35708 -0.33399,-0.53515 -0.87935,-1.40143 -1.77481,-2.79113 -2.6914,-4.16602 -0.007,-0.011 -0.0142,-0.0222 -0.0215,-0.0332 -10.08161,-15.11512 -22.39382,-28.59955 -36.47265,-40 -4.82977,-3.91094 -9.8667,-7.5759 -15.09375,-10.97656 -0.95499,-0.6213 -1.91726,-1.23241 -2.88477,-1.83594 -0.16797,-0.10481 -0.33556,-0.21019 -0.50391,-0.31445 -0.92722,-0.57417 -1.86039,-1.13961 -2.79882,-1.69727 -0.14301,-0.085 -0.28643,-0.16929 -0.42969,-0.25391 -0.98947,-0.58426 -1.98275,-1.16278 -2.98438,-1.72851 -0.002,-0.001 -0.004,-8.8e-4 -0.006,-0.002 -0.005,-0.003 -0.0106,-0.005 -0.0156,-0.008 -4.24642,-2.39772 -8.60071,-4.62582 -13.05469,-6.67969 -0.15,-0.0692 -0.29899,-0.14018 -0.44922,-0.20898 -0.88956,-0.40722 -1.78426,-0.80612 -2.68164,-1.19922 -0.36148,-0.15841 -0.72321,-0.31655 -1.08593,-0.47265 -0.84114,-0.36186 -1.68545,-0.71707 -2.53321,-1.06641 -0.39569,-0.16313 -0.79232,-0.32398 -1.18945,-0.48438 -0.83086,-0.33541 -1.66296,-0.66688 -2.5,-0.99023 -0.4087,-0.15795 -0.82032,-0.30979 -1.23047,-0.46484 -0.86239,-0.32588 -1.72501,-0.65186 -2.59375,-0.96485 -0.27621,-0.0996 -0.55519,-0.19276 -0.83203,-0.29101 -2.14972,-0.76255 -4.31501,-1.49323 -6.50195,-2.17578 -0.79604,-0.24847 -1.59763,-0.48302 -2.39844,-0.72071 -0.52142,-0.15484 -1.04102,-0.31263 -1.56446,-0.46289 -0.71754,-0.20587 -1.43891,-0.40241 -2.16015,-0.59961 -0.63749,-0.1744 -1.27568,-0.34805 -1.91602,-0.51562 -0.68109,-0.17814 -1.36454,-0.35112 -2.04883,-0.52149 -0.67513,-0.16819 -1.35112,-0.33355 -2.02929,-0.49414 -0.67129,-0.15886 -1.34336,-0.31541 -2.01758,-0.4668 -0.70757,-0.15893 -1.41816,-0.31031 -2.12891,-0.46093 -0.65439,-0.1386 -1.3078,-0.27865 -1.96484,-0.41016 -0.74053,-0.14831 -1.48467,-0.28654 -2.22852,-0.42578 -0.64111,-0.11994 -1.28029,-0.24621 -1.92382,-0.35937 -1.31143,-0.23078 -2.62798,-0.44802 -3.94922,-0.6504 -0.013,-0.002 -0.0261,-0.004 -0.0391,-0.006 -0.44322,-0.0677 -0.88972,-0.12492 -1.33399,-0.18945 -0.96488,-0.14023 -1.93051,-0.27738 -2.90039,-0.40234 -0.55921,-0.072 -1.1208,-0.13623 -1.68164,-0.20313 -0.85542,-0.1021 -1.71117,-0.20087 -2.57031,-0.29101 -0.58099,-0.0609 -1.16344,-0.11645 -1.7461,-0.17188 -0.88822,-0.0846 -1.77789,-0.16463 -2.66992,-0.23633 -0.54876,-0.0441 -1.09826,-0.0858 -1.64844,-0.125 -0.88091,-0.0628 -1.76398,-0.11781 -2.64843,-0.16796 -0.58298,-0.033 -1.16552,-0.0682 -1.75,-0.0957 -0.98854,-0.0466 -1.9799,-0.0806 -2.97266,-0.11133 -0.43781,-0.0135 -0.87388,-0.0325 -1.3125,-0.043 -1.46398,-0.0349 -2.93163,-0.0547 -4.4043,-0.0547 H 663.53125 300.60938 Z m -256.917968,160 c -11.079987,0 -20,8.92001 -20,20 0,11.07999 8.920013,20 20,20 h 15.714844 c 11.080025,0 20,-8.92001 20,-20 0,-11.07999 -8.919975,-20 -20,-20 z m 75.023438,0 c -11.079987,0 -20,8.92001 -20,20 0,11.07999 8.920013,20 20,20 h 15.71484 c 11.08003,0 20,-8.92001 20,-20 0,-11.07999 -8.91997,-20 -20,-20 z"
         transform="scale(0.26458334)" />
      <path
         id="path973"
         style="fill:#ffd369;fill-opacity:1;stroke:none;stroke-width:15"
         d="m 485.73438,186.98633 c -11.08003,0 -20,8.92001 -20,20 -10e-6,11.07999 8.91997,20 20,20 h 162.19726 c 11.08003,0 20,8.92001 20,20 0,11.07999 -8.91997,20 -20,20 H 512.07617 c -11.08002,0 -20,8.92001 -20,20 0,11.07999 8.91998,20 20,20 h 111.35742 c 11.08003,0 20,8.92001 20,20 0,11.07999 -8.91997,20 -20,20 H 445.04102 c -11.08003,0 -20,8.92005 -20,20 0,11.07999 8.91997,20 20,20 h 212.07617 c 11.08002,0 20,8.92001 20,20 0,11.07999 -8.91998,20 -20,20 h -25.25 -32.1836 c -11.07998,0 -20,8.92005 -20,20 0,11.07999 8.92002,20 20,20 h 123.1543 c 0.64798,0 1.28612,-0.0341 1.91797,-0.0937 a 140,140 0 0 0 5.08984,0.0937 140,140 0 0 0 140,-140 140,140 0 0 0 -140,-140 140,140 0 0 0 -0.0254,0 140,140 0 0 0 -5.06445,0.0937 c -0.63185,-0.0597 -1.26999,-0.0937 -1.91797,-0.0937 z m -62.4629,80 c -11.07998,0 -20,8.92001 -20,20 0,11.07999 8.92002,20 20,20 h 28.70704 c 11.08002,0 20,-8.92001 20,-20 0,-11.07999 -8.91998,-20 -20,-20 z m 6.45899,160 c -11.07999,0 -20,8.92005 -20,20 0,11.07999 8.92001,20 20,20 h 98.65625 c 11.08002,0 20,-8.92001 20,-20 0,-11.07995 -8.91998,-20 -20,-20 z"
         transform="scale(0.26458334)" />
    </g>
  </g>
</svg>
