<?xml version="1.0" encoding="UTF-8" standalone="no"?>
<svg
   xmlns:dc="http://purl.org/dc/elements/1.1/"
   xmlns:cc="http://creativecommons.org/ns#"
   xmlns:rdf="http://www.w3.org/1999/02/22-rdf-syntax-ns#"
   xmlns:svg="http://www.w3.org/2000/svg"
   xmlns="http://www.w3.org/2000/svg"
   xmlns:sodipodi="http://sodipodi.sourceforge.net/DTD/sodipodi-0.dtd"
   xmlns:inkscape="http://www.inkscape.org/namespaces/inkscape"
   width="320.39609"
   height="544.25757"
   viewBox="0 0 84.771464 144.00149"
   version="1.1"
   id="svg1512"
   inkscape:version="1.0.1 (3bc2e813f5, 2020-09-07)"
   sodipodi:docname="space-shuttle.svg">
  <defs
     id="defs1506" />
  <sodipodi:namedview
     id="base"
     pagecolor="#ffffff"
     bordercolor="#666666"
     borderopacity="1.0"
     inkscape:pageopacity="0.0"
     inkscape:pageshadow="2"
     inkscape:zoom="1.0744514"
     inkscape:cx="-50.232243"
     inkscape:cy="236.38981"
     inkscape:document-units="px"
     inkscape:current-layer="g4349"
     inkscape:document-rotation="0"
     showgrid="false"
     units="px"
     showguides="true"
     inkscape:guide-bbox="true"
     inkscape:snap-bbox="false"
     inkscape:object-paths="true"
     inkscape:snap-smooth-nodes="false"
     inkscape:snap-midpoints="true"
     inkscape:snap-object-midpoints="true"
     inkscape:snap-bbox-midpoints="true"
     inkscape:snap-bbox-edge-midpoints="true"
     inkscape:bbox-nodes="true"
     inkscape:bbox-paths="true"
     inkscape:snap-intersection-paths="true"
     inkscape:snap-global="false"
     inkscape:object-nodes="true"
     inkscape:snap-nodes="true"
     inkscape:snap-center="true"
     inkscape:snap-page="true"
     inkscape:snap-text-baseline="false"
     inkscape:snap-others="false"
     inkscape:window-width="1920"
     inkscape:window-height="1017"
     inkscape:window-x="-8"
     inkscape:window-y="-8"
     inkscape:window-maximized="1"
     fit-margin-top="0"
     fit-margin-left="0"
     fit-margin-right="0"
     fit-margin-bottom="0" />
  <metadata
     id="metadata1509">
    <rdf:RDF>
      <cc:Work
         rdf:about="">
        <dc:format>image/svg+xml</dc:format>
        <dc:type
           rdf:resource="http://purl.org/dc/dcmitype/StillImage" />
        <dc:title />
      </cc:Work>
    </rdf:RDF>
  </metadata>
  <g
     inkscape:label="Layer 1"
     id="layer1"
     transform="translate(-89.905933,-57.860087)"
     inkscape:groupmode="layer">
    <path
       style="display:inline;fill:#ffd369;fill-opacity:1;stroke:none;stroke-width:0.264583px;stroke-linecap:butt;stroke-linejoin:miter;stroke-opacity:1"
       d="m 111.73406,92.652796 1.32292,-13.229167 4.10104,-7.9375 6.35,-6.482292 5.82083,-4.233333 2.77813,-1.190625 5.68854,3.175 3.70416,3.704167 3.96875,2.910416 3.70417,5.688542 2.38125,4.365625 1.05833,5.55625 1.05834,7.143751 -0.92604,5.953125 4.6302,-2.645834 3.43959,-0.396875 2.64583,3.307292 0.92604,15.478122 -0.26458,50.40313 7.67292,8.73125 1.32291,16.40417 -25.92916,-0.52917 2.11666,10.98021 -34.13125,0.13229 3.04271,-11.50937 -26.722917,1.05833 0.79375,-17.06563 7.937497,-7.14375 0.26459,-65.881249 3.175,-4.233333 4.10104,0.529167 2.77812,0.529166 z"
       id="path4421"
       inkscape:label="fill" />
    <g
       id="g5111"
       inkscape:label="main body">
      <path
         style="fill:#eeeeee;fill-opacity:1;stroke:none;stroke-width:0.264583px;stroke-linecap:butt;stroke-linejoin:miter;stroke-opacity:1"
         d="m 112.31466,92.335047 41.1237,-0.4925 -0.73875,-9.603739 -3.20125,-8.618739 -10.09623,-10.588738 -7.14125,-2.954997 -8.37249,3.447496 -6.40249,7.141242 -4.67874,8.61874 z"
         id="path5100"
         inkscape:label="fill top" />
      <path
         id="path4008"
         style="color:#000000;font-style:normal;font-variant:normal;font-weight:normal;font-stretch:normal;font-size:medium;line-height:normal;font-family:sans-serif;font-variant-ligatures:normal;font-variant-position:normal;font-variant-caps:normal;font-variant-numeric:normal;font-variant-alternates:normal;font-variant-east-asian:normal;font-feature-settings:normal;font-variation-settings:normal;text-indent:0;text-align:start;text-decoration:none;text-decoration-line:none;text-decoration-style:solid;text-decoration-color:#000000;letter-spacing:normal;word-spacing:normal;text-transform:none;writing-mode:lr-tb;direction:ltr;text-orientation:mixed;dominant-baseline:auto;baseline-shift:baseline;text-anchor:start;white-space:normal;shape-padding:0;shape-margin:0;inline-size:0;clip-rule:nonzero;display:inline;overflow:visible;visibility:visible;isolation:auto;mix-blend-mode:normal;color-interpolation:sRGB;color-interpolation-filters:linearRGB;solid-color:#000000;solid-opacity:1;vector-effect:none;fill:#222831;fill-opacity:1;fill-rule:nonzero;stroke:none;stroke-width:4.15514;stroke-linecap:butt;stroke-linejoin:miter;stroke-miterlimit:4;stroke-dasharray:none;stroke-dashoffset:0;stroke-opacity:1;color-rendering:auto;image-rendering:auto;shape-rendering:auto;text-rendering:auto;enable-background:accumulate;stop-color:#000000"
         d="m 132.29113,57.860087 -0.66477,0.244977 c -7.40214,2.720693 -13.62141,8.018885 -17.55645,14.957642 -2.9363,5.178296 -4.45931,11.022402 -4.46719,16.932481 h -0.001 v 3.994505 50.065788 h 3.97084 V 93.989692 h 37.44145 v 49.799488 h 3.96875 V 89.995187 h -0.007 c -0.0147,-11.957166 -6.24552,-23.232337 -16.66759,-29.358694 -1.70635,-1.002882 -3.49775,-1.850817 -5.35094,-2.531948 z m 5.4e-4,4.315964 c 1.39064,0.551518 2.76164,1.160238 4.05478,1.920288 9.20459,5.410693 14.665,15.345076 14.66696,25.898848 h -37.43465 c -0.008,-5.212913 1.29843,-10.366134 3.88899,-14.934697 3.34916,-5.905659 8.59666,-10.41404 14.82389,-12.884439 z"
         inkscape:label="main body stroke" />
    </g>
    <g
       id="g4337"
       transform="translate(-39.84758,20.303815)"
       style="fill:#222831;fill-opacity:1;stroke:none;stroke-width:1.00013;stroke-miterlimit:4;stroke-dasharray:none"
       inkscape:label="right shuttle">
      <path
         style="fill:#eeeeee;fill-opacity:1;stroke:none;stroke-width:0.264583px;stroke-linecap:butt;stroke-linejoin:miter;stroke-opacity:1"
         d="m 193.28594,89.51496 11.08123,0.246251 -0.24625,-11.819986 -4.67874,-3.939995 -5.66375,2.954996 z"
         id="path5113" />
      <path
         style="color:#000000;font-style:normal;font-variant:normal;font-weight:normal;font-stretch:normal;font-size:medium;line-height:normal;font-family:sans-serif;font-variant-ligatures:normal;font-variant-position:normal;font-variant-caps:normal;font-variant-numeric:normal;font-variant-alternates:normal;font-variant-east-asian:normal;font-feature-settings:normal;font-variation-settings:normal;text-indent:0;text-align:start;text-decoration:none;text-decoration-line:none;text-decoration-style:solid;text-decoration-color:#000000;letter-spacing:normal;word-spacing:normal;text-transform:none;writing-mode:lr-tb;direction:ltr;text-orientation:mixed;dominant-baseline:auto;baseline-shift:baseline;text-anchor:start;white-space:normal;shape-padding:0;shape-margin:0;inline-size:0;clip-rule:nonzero;display:inline;overflow:visible;visibility:visible;opacity:1;isolation:auto;mix-blend-mode:normal;color-interpolation:sRGB;color-interpolation-filters:linearRGB;solid-color:#000000;solid-opacity:1;vector-effect:none;fill:#222831;fill-opacity:1;fill-rule:nonzero;stroke:none;stroke-width:1.00013;stroke-linecap:butt;stroke-linejoin:miter;stroke-miterlimit:4;stroke-dasharray:none;stroke-dashoffset:0;stroke-opacity:1;color-rendering:auto;image-rendering:auto;shape-rendering:auto;text-rendering:auto;enable-background:accumulate;stop-color:#000000;stop-opacity:1"
         d="m 198.39844,72.523438 c -4.14147,0 -7.53711,3.397591 -7.53711,7.539062 v 63.85156 c 0,4.14147 3.39564,7.53711 7.53711,7.53711 4.14147,0 7.53906,-3.39564 7.53906,-7.53711 V 80.0625 c 0,-4.141471 -3.39759,-7.539062 -7.53906,-7.539062 z m 0,3.96875 c 2.01143,0 3.57031,1.558881 3.57031,3.570312 v 63.85156 c 0,2.01143 -1.55888,3.56836 -3.57031,3.56836 -2.01143,0 -3.56836,-1.55693 -3.56836,-3.56836 V 80.0625 c 0,-2.011431 1.55693,-3.570312 3.56836,-3.570312 z"
         id="path4366" />
      <path
         style="color:#000000;font-style:normal;font-variant:normal;font-weight:normal;font-stretch:normal;font-size:medium;line-height:normal;font-family:sans-serif;font-variant-ligatures:normal;font-variant-position:normal;font-variant-caps:normal;font-variant-numeric:normal;font-variant-alternates:normal;font-variant-east-asian:normal;font-feature-settings:normal;font-variation-settings:normal;text-indent:0;text-align:start;text-decoration:none;text-decoration-line:none;text-decoration-style:solid;text-decoration-color:#000000;letter-spacing:normal;word-spacing:normal;text-transform:none;writing-mode:lr-tb;direction:ltr;text-orientation:mixed;dominant-baseline:auto;baseline-shift:baseline;text-anchor:start;white-space:normal;shape-padding:0;shape-margin:0;inline-size:0;clip-rule:nonzero;display:inline;overflow:visible;visibility:visible;opacity:1;isolation:auto;mix-blend-mode:normal;color-interpolation:sRGB;color-interpolation-filters:linearRGB;solid-color:#000000;solid-opacity:1;vector-effect:none;fill:#222831;fill-opacity:1;fill-rule:nonzero;stroke:none;stroke-width:1.00013;stroke-linecap:butt;stroke-linejoin:miter;stroke-miterlimit:4;stroke-dasharray:none;stroke-dashoffset:0;stroke-opacity:1;color-rendering:auto;image-rendering:auto;shape-rendering:auto;text-rendering:auto;enable-background:accumulate;stop-color:#000000;stop-opacity:1"
         d="m 192.8457,87.443359 v 3.96875 h 11.10742 v -3.96875 z"
         id="path4374" />
    </g>
    <g
       id="g4349"
       transform="translate(-92.365161,20.303815)"
       style="fill:#222831;fill-opacity:1"
       inkscape:label="left shuttle">
      <path
         style="fill:#eeeeee;fill-opacity:1;stroke:none;stroke-width:0.264583px;stroke-linecap:butt;stroke-linejoin:miter;stroke-opacity:1"
         d="m 193.28594,89.51496 11.08123,0.246251 -0.24625,-11.819986 -4.67874,-3.939995 -5.66375,2.954996 z"
         id="path5116" />
      <path
         style="color:#000000;font-style:normal;font-variant:normal;font-weight:normal;font-stretch:normal;font-size:medium;line-height:normal;font-family:sans-serif;font-variant-ligatures:normal;font-variant-position:normal;font-variant-caps:normal;font-variant-numeric:normal;font-variant-alternates:normal;font-variant-east-asian:normal;font-feature-settings:normal;font-variation-settings:normal;text-indent:0;text-align:start;text-decoration:none;text-decoration-line:none;text-decoration-style:solid;text-decoration-color:#000000;letter-spacing:normal;word-spacing:normal;text-transform:none;writing-mode:lr-tb;direction:ltr;text-orientation:mixed;dominant-baseline:auto;baseline-shift:baseline;text-anchor:start;white-space:normal;shape-padding:0;shape-margin:0;inline-size:0;clip-rule:nonzero;display:inline;overflow:visible;visibility:visible;opacity:1;isolation:auto;mix-blend-mode:normal;color-interpolation:sRGB;color-interpolation-filters:linearRGB;solid-color:#000000;solid-opacity:1;vector-effect:none;fill:#222831;fill-opacity:1;fill-rule:nonzero;stroke:none;stroke-width:3.96875;stroke-linecap:butt;stroke-linejoin:miter;stroke-miterlimit:4;stroke-dasharray:none;stroke-dashoffset:0;stroke-opacity:1;color-rendering:auto;image-rendering:auto;shape-rendering:auto;text-rendering:auto;enable-background:accumulate;stop-color:#000000;stop-opacity:1"
         d="m 198.39844,72.523438 c -4.14147,0 -7.53711,3.397591 -7.53711,7.539062 v 63.85156 c 0,4.14147 3.39564,7.53711 7.53711,7.53711 4.14147,0 7.53906,-3.39564 7.53906,-7.53711 V 80.0625 c 0,-4.141471 -3.39759,-7.539062 -7.53906,-7.539062 z m 0,3.96875 c 2.01143,0 3.57031,1.558881 3.57031,3.570312 v 63.85156 c 0,2.01143 -1.55888,3.56836 -3.57031,3.56836 -2.01143,0 -3.56836,-1.55693 -3.56836,-3.56836 V 80.0625 c 0,-2.011431 1.55693,-3.570312 3.56836,-3.570312 z"
         id="path4378" />
      <path
         style="color:#000000;font-style:normal;font-variant:normal;font-weight:normal;font-stretch:normal;font-size:medium;line-height:normal;font-family:sans-serif;font-variant-ligatures:normal;font-variant-position:normal;font-variant-caps:normal;font-variant-numeric:normal;font-variant-alternates:normal;font-variant-east-asian:normal;font-feature-settings:normal;font-variation-settings:normal;text-indent:0;text-align:start;text-decoration:none;text-decoration-line:none;text-decoration-style:solid;text-decoration-color:#000000;letter-spacing:normal;word-spacing:normal;text-transform:none;writing-mode:lr-tb;direction:ltr;text-orientation:mixed;dominant-baseline:auto;baseline-shift:baseline;text-anchor:start;white-space:normal;shape-padding:0;shape-margin:0;inline-size:0;clip-rule:nonzero;display:inline;overflow:visible;visibility:visible;opacity:1;isolation:auto;mix-blend-mode:normal;color-interpolation:sRGB;color-interpolation-filters:linearRGB;solid-color:#000000;solid-opacity:1;vector-effect:none;fill:#222831;fill-opacity:1;fill-rule:nonzero;stroke:none;stroke-width:3.96875;stroke-linecap:butt;stroke-linejoin:miter;stroke-miterlimit:4;stroke-dasharray:none;stroke-dashoffset:0;stroke-opacity:1;color-rendering:auto;image-rendering:auto;shape-rendering:auto;text-rendering:auto;enable-background:accumulate;stop-color:#000000;stop-opacity:1"
         d="m 192.8457,87.443359 v 3.96875 h 11.10742 v -3.96875 z"
         id="path4386" />
    </g>
    <g
       id="g4394"
       style="display:inline;opacity:1;fill:#222831;fill-opacity:1;stroke:#000000;stroke-width:0;stroke-miterlimit:4;stroke-dasharray:none;stroke-opacity:1"
       inkscape:label="middle shuttle">
      <g
         id="g4388"
         style="display:inline;opacity:1;stroke:none"
         inkscape:label="middle shuttle wings">
        <path
           style="color:#000000;font-style:normal;font-variant:normal;font-weight:normal;font-stretch:normal;font-size:medium;line-height:normal;font-family:sans-serif;font-variant-ligatures:normal;font-variant-position:normal;font-variant-caps:normal;font-variant-numeric:normal;font-variant-alternates:normal;font-variant-east-asian:normal;font-feature-settings:normal;font-variation-settings:normal;text-indent:0;text-align:start;text-decoration:none;text-decoration-line:none;text-decoration-style:solid;text-decoration-color:#000000;letter-spacing:normal;word-spacing:normal;text-transform:none;writing-mode:lr-tb;direction:ltr;text-orientation:mixed;dominant-baseline:auto;baseline-shift:baseline;text-anchor:start;white-space:normal;shape-padding:0;shape-margin:0;inline-size:0;clip-rule:nonzero;display:inline;overflow:visible;visibility:visible;isolation:auto;mix-blend-mode:normal;color-interpolation:sRGB;color-interpolation-filters:linearRGB;solid-color:#000000;solid-opacity:1;vector-effect:none;fill:#eeeeee;fill-opacity:1;fill-rule:nonzero;stroke:none;stroke-width:3.96875;stroke-linecap:butt;stroke-linejoin:miter;stroke-miterlimit:4;stroke-dasharray:none;stroke-dashoffset:0;stroke-opacity:1;color-rendering:auto;image-rendering:auto;shape-rendering:auto;text-rendering:auto;enable-background:accumulate;stop-color:#000000;stop-opacity:1"
           d="m 132.25583,121.27325 c -3.38327,0.006 -6.71583,0.82278 -9.71824,2.3823 -7.50005,3.89536 -11.96338,11.87954 -11.35305,20.30878 -0.13908,9.31061 -4.89478,17.94375 -12.69016,23.03677 -3.916613,1.90575 -6.604072,5.91784 -6.604072,10.58189 v 11.76523 h 11.765232 28.63612 28.63613 11.76523 v -11.76523 c 0,-0.17721 -0.005,-0.35313 -0.0134,-0.52837 -0.003,-0.0599 -0.005,-0.11957 -0.009,-0.1792 -0.008,-0.1356 -0.0187,-0.27037 -0.0312,-0.40467 -0.004,-0.0443 -0.007,-0.0888 -0.0118,-0.13296 -0.0183,-0.1759 -0.0405,-0.35087 -0.0665,-0.52432 -0.005,-0.0333 -0.0105,-0.0663 -0.0162,-0.0994 -0.0223,-0.1404 -0.0474,-0.27986 -0.0745,-0.41854 -0.0105,-0.0537 -0.0206,-0.10739 -0.0318,-0.1607 -0.0347,-0.16494 -0.0719,-0.32853 -0.11328,-0.4908 -5.9e-4,-0.003 -0.001,-0.005 -0.001,-0.008 -2.9e-4,-0.001 -8.8e-4,-0.003 -0.001,-0.005 -0.0397,-0.15472 -0.0843,-0.30741 -0.13005,-0.45957 -0.0707,-0.23545 -0.14757,-0.46828 -0.23238,-0.69717 -0.0132,-0.0356 -0.028,-0.0703 -0.0417,-0.10582 -0.0766,-0.20069 -0.15863,-0.39852 -0.24569,-0.59369 -0.0232,-0.052 -0.0466,-0.10386 -0.0706,-0.15551 -0.10399,-0.22436 -0.21261,-0.44557 -0.33009,-0.6619 -0.11682,-0.21525 -0.24264,-0.42508 -0.37228,-0.63186 -0.0309,-0.0493 -0.0621,-0.0981 -0.0936,-0.14683 -0.12062,-0.18623 -0.24563,-0.36932 -0.37634,-0.54802 -0.0131,-0.0172 -0.0243,-0.035 -0.0371,-0.052 -0.14779,-0.19976 -0.3026,-0.39358 -0.46248,-0.58329 -0.0288,-0.0342 -0.0587,-0.0673 -0.0879,-0.10111 -0.13958,-0.16185 -0.28314,-0.32011 -0.43125,-0.47403 -0.028,-0.0292 -0.0554,-0.0589 -0.0838,-0.0879 -0.17502,-0.17819 -0.35561,-0.35065 -0.54166,-0.51739 -0.0161,-0.0144 -0.0323,-0.0284 -0.0486,-0.0428 -0.17301,-0.15333 -0.35107,-0.30095 -0.53301,-0.44397 -0.0304,-0.024 -0.0606,-0.0481 -0.0913,-0.0716 -0.39959,-0.3078 -0.81966,-0.59006 -1.25791,-0.84516 -0.033,-0.0193 -0.0661,-0.0383 -0.0994,-0.0572 -0.21828,-0.12428 -0.43972,-0.24285 -0.66654,-0.35321 0,0 -0.003,-0.001 -0.003,-0.001 -7.794,-5.0932 -12.54872,-13.72548 -12.68786,-23.03504 0.002,-0.0299 0.003,-0.0597 0.005,-0.0896 0,0 0.001,-0.0131 0.001,-0.0131 0,0 0.001,-0.0266 0.001,-0.0266 0.004,-0.0611 0.008,-0.12215 0.0118,-0.18325 0.003,-0.0493 0.006,-0.0986 0.008,-0.14799 0.001,-0.0208 0.003,-0.0417 0.004,-0.0625 0,0 0.001,-0.0266 0.001,-0.0266 0.003,-0.0701 0.006,-0.14027 0.009,-0.21042 0.003,-0.0613 0.005,-0.12254 0.007,-0.18382 0,0 5.9e-4,-0.0266 5.9e-4,-0.0266 0.002,-0.10578 0.004,-0.21157 0.005,-0.31737 2.5e-4,-0.0256 4.5e-4,-0.0513 6.1e-4,-0.0769 5.5e-4,-0.0701 7.4e-4,-0.14028 5.9e-4,-0.21042 0,0 0,-0.0266 0,-0.0266 -1.7e-4,-0.0177 -3.7e-4,-0.0355 -5.9e-4,-0.0532 -1.4e-4,-0.0524 -4.7e-4,-0.10483 -0.001,-0.15724 -0.002,-0.14031 -0.005,-0.28059 -0.009,-0.42084 -0.002,-0.0611 -0.004,-0.12218 -0.007,-0.18326 0,0 -0.001,-0.0266 -0.001,-0.0266 -0.003,-0.0613 -0.006,-0.12257 -0.009,-0.18384 -0.002,-0.0281 -0.003,-0.0562 -0.005,-0.0843 -0.006,-0.10892 -0.013,-0.2178 -0.0208,-0.32661 0,0 -5.9e-4,-0.009 -5.9e-4,-0.009 -0.003,-0.0472 -0.007,-0.0944 -0.0105,-0.14163 -0.002,-0.0227 -0.003,-0.0455 -0.005,-0.0682 0,0 -0.003,-0.0266 -0.003,-0.0266 -0.0115,-0.13983 -0.0245,-0.27954 -0.0388,-0.41911 -0.0144,-0.13948 -0.0302,-0.27881 -0.0474,-0.41797 -0.0173,-0.13931 -0.036,-0.27844 -0.056,-0.41737 -0.009,-0.0605 -0.0175,-0.12105 -0.0266,-0.18152 0,0 -0.004,-0.0266 -0.004,-0.0266 -0.003,-0.0169 -0.005,-0.0339 -0.008,-0.0508 -0.008,-0.0522 -0.0167,-0.10447 -0.0254,-0.15666 -0.01,-0.0606 -0.0198,-0.12106 -0.0301,-0.18152 0,0 -0.005,-0.0261 -0.005,-0.0261 0,0 -0.003,-0.0118 -0.003,-0.0118 -0.0114,-0.0654 -0.0232,-0.13071 -0.0352,-0.19598 -0.0109,-0.0602 -0.0221,-0.12028 -0.0335,-0.18035 0,0 -0.005,-0.0261 -0.005,-0.0261 -0.0136,-0.0689 -0.0275,-0.13766 -0.0417,-0.20638 -0.0123,-0.06 -0.0248,-0.11991 -0.0376,-0.17979 0,0 -0.005,-0.0266 -0.005,-0.0266 -0.0128,-0.0598 -0.0259,-0.11953 -0.0393,-0.17921 0,0 -0.005,-0.0261 -0.005,-0.0261 -0.0134,-0.0598 -0.0271,-0.11954 -0.041,-0.17922 0,0 -0.007,-0.0261 -0.007,-0.0261 -0.0324,-0.13657 -0.0661,-0.27281 -0.10111,-0.4087 -0.0151,-0.0592 -0.0305,-0.11839 -0.0462,-0.17749 0,0 -0.007,-0.0261 -0.007,-0.0261 0,0 -0.005,-0.0179 -0.005,-0.0179 -0.0325,-0.12093 -0.066,-0.24156 -0.10059,-0.36189 0,0 -0.008,-0.0254 -0.008,-0.0254 -0.38704,-1.33684 -0.90501,-2.63224 -1.54638,-3.86739 -3.64645,-7.02106 -10.90466,-11.42184 -18.81616,-11.40856 z"
           id="path4390" />
        <path
           style="color:#000000;font-style:normal;font-variant:normal;font-weight:normal;font-stretch:normal;font-size:medium;line-height:normal;font-family:sans-serif;font-variant-ligatures:normal;font-variant-position:normal;font-variant-caps:normal;font-variant-numeric:normal;font-variant-alternates:normal;font-variant-east-asian:normal;font-feature-settings:normal;font-variation-settings:normal;text-indent:0;text-align:start;text-decoration:none;text-decoration-line:none;text-decoration-style:solid;text-decoration-color:#000000;letter-spacing:normal;word-spacing:normal;text-transform:none;writing-mode:lr-tb;direction:ltr;text-orientation:mixed;dominant-baseline:auto;baseline-shift:baseline;text-anchor:start;white-space:normal;shape-padding:0;shape-margin:0;inline-size:0;clip-rule:nonzero;display:inline;overflow:visible;visibility:visible;isolation:auto;mix-blend-mode:normal;color-interpolation:sRGB;color-interpolation-filters:linearRGB;solid-color:#000000;solid-opacity:1;vector-effect:none;fill:#222831;fill-opacity:1;fill-rule:nonzero;stroke:none;stroke-width:3.96875;stroke-linecap:butt;stroke-linejoin:miter;stroke-miterlimit:4;stroke-dasharray:none;stroke-dashoffset:0;stroke-opacity:1;color-rendering:auto;image-rendering:auto;shape-rendering:auto;text-rendering:auto;enable-background:accumulate;stop-color:#000000;stop-opacity:1"
           d="m 132.25195,119.28906 -1.28711,0.002 -0.0723,0.16406 c -3.22452,0.19765 -6.39366,0.94566 -9.26953,2.43945 -8.19856,4.25815 -13.08515,12.99861 -12.41797,22.21289 l -0.004,-0.17187 c -0.12926,8.65343 -4.54781,16.67076 -11.792967,21.40429 l 0.21875,-0.12304 c -4.580765,2.22891 -7.720703,6.93891 -7.720703,12.36523 v 13.75 h 13.75 28.63477 28.63671 13.75 v -13.75 c 0,-0.21453 -0.006,-0.42198 -0.0156,-0.62305 v -0.002 -0.002 c -0.002,-0.0382 -0.005,-0.10913 -0.0117,-0.21289 -0.009,-0.15454 -0.0217,-0.30383 -0.0352,-0.44922 v -0.006 c -0.001,-0.0156 -0.005,-0.0695 -0.0137,-0.1543 l -0.002,-0.01 c -0.0212,-0.20215 -0.0462,-0.40362 -0.0762,-0.60352 -0.007,-0.0446 -0.0136,-0.0822 -0.0195,-0.11719 l -0.004,-0.0254 c -0.0255,-0.15806 -0.0527,-0.31299 -0.082,-0.46289 -0.009,-0.0444 -0.0202,-0.10675 -0.0371,-0.1875 -0.0212,-0.10087 -0.0482,-0.20671 -0.0723,-0.31054 v -0.0625 l -0.0625,-0.21485 c -0.003,-0.0115 -0.007,-0.0199 -0.01,-0.0312 l -0.006,-0.0234 c -0.0455,-0.17292 -0.0931,-0.33717 -0.13672,-0.48242 v -0.002 c -0.0809,-0.26922 -0.1703,-0.54136 -0.27148,-0.81445 -0.0336,-0.0907 -0.0498,-0.12781 -0.0488,-0.125 l -0.002,-0.006 c -0.0893,-0.23374 -0.18461,-0.4621 -0.28515,-0.6875 -0.0252,-0.0566 -0.0541,-0.11731 -0.084,-0.18164 v -0.002 c -0.11599,-0.25019 -0.24199,-0.50847 -0.38476,-0.77148 v -0.002 c -0.1436,-0.26449 -0.29221,-0.50965 -0.43555,-0.73829 -0.0372,-0.0593 -0.0743,-0.11564 -0.10937,-0.16992 v -0.002 c -0.1381,-0.21321 -0.28338,-0.42724 -0.43946,-0.64063 l -0.0117,-0.0156 -0.0117,-0.0156 c 0.0386,0.0506 0.002,0.003 -0.0215,-0.0293 l -0.01,-0.0137 c -0.1736,-0.23395 -0.35052,-0.45583 -0.5293,-0.66797 -0.0583,-0.0693 -0.0935,-0.10761 -0.10352,-0.11914 -0.16064,-0.18628 -0.32754,-0.36945 -0.50195,-0.55078 l -0.002,-0.002 c -0.011,-0.0115 -0.0409,-0.0456 -0.0957,-0.10156 h -0.002 v -0.002 c -0.20467,-0.20838 -0.4156,-0.40885 -0.63281,-0.60352 l -0.002,-0.002 c -0.031,-0.0277 -0.0479,-0.0429 -0.0547,-0.0488 l -0.004,-0.002 c -0.2046,-0.18121 -0.41127,-0.35418 -0.61914,-0.51758 l 0.002,0.004 c -0.0242,-0.0191 -0.0598,-0.0499 -0.10937,-0.0879 l -0.004,-0.002 c -0.46542,-0.35828 -0.9537,-0.68581 -1.46289,-0.98242 l -0.004,-0.002 c -0.0403,-0.0236 -0.078,-0.0472 -0.11524,-0.0684 h -0.002 c -0.18756,-0.10677 -0.38855,-0.21005 -0.58985,-0.3125 -7.21871,-4.7306 -11.62087,-12.72185 -11.75976,-21.35157 -4e-5,-0.003 4e-5,-0.005 0,-0.008 l 0.002,-0.0371 v -0.01 c 0.003,-0.0461 0.007,-0.0926 0.01,-0.13868 v -0.002 -0.004 c 0.003,-0.0441 0.006,-0.0868 0.008,-0.13085 l 0.002,-0.0293 c 8.4e-4,-0.013 0.001,-0.026 0.002,-0.0391 l 0.002,-0.0254 0.002,-0.0508 -0.002,0.0195 c 0.004,-0.0735 0.007,-0.14722 0.01,-0.22071 v -0.01 c 0.003,-0.0638 0.006,-0.12763 0.008,-0.19141 v -0.0117 l 0.002,-0.0351 v -0.002 c 0.003,-0.11374 0.003,-0.22802 0.004,-0.34179 v -0.004 c 2.5e-4,-0.0261 0.002,-0.052 0.002,-0.0781 v -0.002 c 5.7e-4,-0.0741 1.4e-4,-0.14854 0,-0.22266 v -0.006 -0.0312 -0.01 c -1.3e-4,-0.0129 1.5e-4,-0.0261 0,-0.0391 v -0.0195 c -1.8e-4,-0.0508 -10e-4,-0.10153 -0.002,-0.15235 v -0.002 c -0.002,-0.15346 -0.005,-0.30754 -0.01,-0.46094 v -0.002 -0.004 c -0.002,-0.0635 -0.005,-0.12592 -0.008,-0.18945 v -0.01 -0.0234 -0.008 c -0.003,-0.067 -0.006,-0.13416 -0.01,-0.20117 l -0.002,-0.004 v -0.004 c -0.002,-0.0275 -0.002,-0.0546 -0.004,-0.082 v -0.01 c -0.007,-0.11589 -0.0152,-0.23187 -0.0234,-0.34765 v -0.002 -0.006 c -0.004,-0.0517 -0.008,-0.10267 -0.0117,-0.15429 -0.002,-0.0209 -0.002,-0.0416 -0.004,-0.0625 l -0.004,-0.0371 v -0.004 l -0.006,-0.0606 c -0.0113,-0.13272 -0.0235,-0.26592 -0.0371,-0.39843 v -0.002 c -0.0158,-0.15255 -0.0339,-0.30482 -0.0527,-0.45703 v -0.002 c -0.0187,-0.15108 -0.0388,-0.30049 -0.0605,-0.45117 v -0.004 c -0.009,-0.0643 -0.0196,-0.12912 -0.0293,-0.19336 l -0.004,-0.0332 -0.002,-0.006 c -0.003,-0.0185 -0.005,-0.0362 -0.008,-0.0547 -0.009,-0.0571 -0.0179,-0.11284 -0.0273,-0.16992 v 0.008 c -0.0107,-0.0662 -0.02,-0.13113 -0.0312,-0.19726 l -0.004,-0.0215 -0.006,-0.0254 c -0.005,-0.026 -0.009,-0.0522 -0.0137,-0.0781 l -0.002,-0.008 c -0.007,-0.0409 -0.014,-0.0822 -0.0215,-0.12304 l -0.002,-0.006 c -0.0116,-0.0638 -0.023,-0.12771 -0.0351,-0.19141 l -0.006,-0.0332 -0.002,-0.006 c -0.0146,-0.0741 -0.0296,-0.14679 -0.0449,-0.2207 v -0.004 c -0.01,-0.0486 -0.021,-0.096 -0.0312,-0.14453 v -0.004 c -0.003,-0.0145 -0.007,-0.0285 -0.01,-0.043 v -0.004 l -0.006,-0.0254 c -0.01,-0.0457 -0.0192,-0.0911 -0.0293,-0.13672 l -0.0117,-0.0566 -0.006,-0.0293 c -0.0147,-0.0654 -0.0297,-0.13004 -0.0449,-0.19531 l -0.008,-0.0332 -0.0156,-0.0566 c -0.0309,-0.12916 -0.0625,-0.25811 -0.0957,-0.38671 v -0.004 c -0.0163,-0.0636 -0.034,-0.12604 -0.0508,-0.18945 v -0.004 l -0.01,-0.0391 -0.008,-0.0273 0.004,0.0195 c -0.0355,-0.13227 -0.0715,-0.26488 -0.10938,-0.39649 l -0.006,-0.0234 -0.002,-0.004 c -0.42333,-1.4622 -0.98989,-2.87951 -1.69141,-4.23047 -3.98655,-7.67592 -11.93262,-12.49304 -20.58203,-12.47852 z m 0.008,3.96875 c 7.17358,-0.012 13.74443,3.97169 17.05078,10.33789 0.58123,1.11933 1.0516,2.29437 1.40234,3.50586 l 0.006,0.0215 c 0.0314,0.10904 0.0624,0.21854 0.0918,0.32812 l 0.002,0.01 0.006,0.0176 0.004,0.0156 c 0.0136,0.0516 0.0278,0.10455 0.041,0.15625 v 0.002 0.002 c 0.0318,0.12315 0.0625,0.24538 0.0918,0.36914 l 0.008,0.0293 0.0137,0.0547 c 0.006,0.0247 0.0101,0.0495 0.0156,0.0742 l 0.004,0.0195 0.006,0.0312 c 0.0102,0.0456 0.0214,0.091 0.0312,0.13672 l 0.004,0.0254 0.006,0.0234 c 0.0116,0.0543 0.0221,0.1097 0.0332,0.16406 l 0.002,0.002 v 0.002 c 0.0129,0.0623 0.0248,0.12509 0.0371,0.1875 l 0.004,0.0156 c 0.0102,0.0538 0.0195,0.10822 0.0293,0.16211 v 0.002 l 0.002,0.004 c 0.0109,0.0591 0.0209,0.11848 0.0312,0.17774 l 0.006,0.0293 0.004,0.0273 c 0.001,0.006 0.003,0.0117 0.004,0.0176 0.007,0.0398 0.0131,0.0793 0.0195,0.11914 l 0.002,0.004 v 0.004 c 0.008,0.0473 0.0159,0.0952 0.0234,0.14258 v 0.002 c 0.002,0.0153 0.005,0.0296 0.008,0.0449 l 0.002,0.0156 v 0.002 c 0.008,0.0548 0.0156,0.10919 0.0234,0.16406 v 0.002 l 0.002,0.002 c 0.0182,0.1259 0.0351,0.25266 0.0508,0.3789 0.0155,0.12548 0.03,0.2512 0.043,0.37696 l -0.002,-0.002 c 0.013,0.12649 0.0247,0.25415 0.0352,0.38086 l 0.004,0.0293 c 0.001,0.0146 0.003,0.0283 0.004,0.043 v 0.006 0.006 c 0.003,0.0428 0.007,0.0861 0.01,0.1289 v 0.004 0.006 c 0.007,0.0986 0.014,0.19817 0.0195,0.29687 v 0.004 0.006 c 0.002,0.0255 0.004,0.0507 0.006,0.0762 l -0.002,-0.008 c 0.003,0.0555 0.007,0.11242 0.01,0.16797 v 0.0176 0.004 c 0.002,0.0554 0.004,0.11065 0.006,0.16602 0.004,0.12579 0.006,0.2511 0.008,0.37695 4.5e-4,0.0462 0.002,0.0925 0.002,0.13867 v 0.01 0.01 c 2e-4,0.0161 -1.6e-4,0.0328 0,0.0488 v 0.01 0.002 c 1.4e-4,0.0636 4.9e-4,0.12589 0,0.18945 v 0.002 0.002 c -1.4e-4,0.0232 2.3e-4,0.0471 0,0.0703 v 0.002 c -7.9e-4,0.0959 -0.004,0.1932 -0.006,0.28906 v 0.0273 c -0.002,0.0484 -0.004,0.0962 -0.006,0.14453 v 0.004 0.006 c -0.002,0.0636 -0.005,0.1259 -0.008,0.18945 -4e-5,6.5e-4 4e-5,0.001 0,0.002 l -0.002,0.008 v 0.0176 c -5.9e-4,0.009 -0.001,0.0182 -0.002,0.0273 v 0.0137 l -0.002,0.0156 c -0.002,0.0447 -0.005,0.0901 -0.008,0.13476 l 0.002,-0.006 c -0.003,0.0554 -0.008,0.11068 -0.0117,0.16602 l -0.002,0.0312 v 0.0195 l -0.002,0.0195 c -0.001,0.0271 -0.002,0.053 -0.004,0.0801 l -0.004,0.0723 v 0.0723 c 0.14896,9.96666 5.24376,19.21527 13.58789,24.66797 l 0.21485,0.13867 0.0898,0.0293 c 0.15361,0.077 0.30759,0.1574 0.4668,0.24804 l 0.002,0.002 h 0.002 c 0.0277,0.0157 0.0524,0.031 0.0762,0.0449 h 0.002 l 0.002,0.002 c 0.36471,0.21229 0.71334,0.44576 1.04492,0.70117 l 0.002,0.002 0.004,0.002 c 0.01,0.007 0.0306,0.0245 0.0664,0.0527 l 0.002,0.002 0.002,0.002 c 0.15491,0.12177 0.30299,0.24474 0.44336,0.36914 l 0.002,0.002 c 0.0269,0.0238 0.0396,0.0357 0.0391,0.0351 v -0.002 c 0.15488,0.13881 0.30385,0.28168 0.44922,0.42969 0.002,0.002 0.024,0.024 0.0684,0.0703 v 0.002 l 0.002,0.002 c 0.12111,0.12585 0.23951,0.25584 0.35742,0.39257 l 0.002,0.002 c 0.0484,0.0561 0.073,0.0829 0.0723,0.082 0.13746,0.1631 0.26603,0.32584 0.38477,0.48633 l 0.004,0.006 0.006,0.006 c -0.053,-0.0704 -0.0396,-0.0479 0.043,0.0606 l -0.0234,-0.0293 c 0.10534,0.14402 0.20936,0.29583 0.3125,0.45508 0.0276,0.0426 0.0538,0.0822 0.0781,0.1211 0.11566,0.18447 0.22077,0.35997 0.31055,0.52539 0.0915,0.16856 0.18187,0.35128 0.27343,0.54882 v 0.002 c 0.0178,0.0383 0.0377,0.082 0.0586,0.1289 0.0727,0.16308 0.1399,0.32656 0.20312,0.49219 l 0.002,0.004 0.002,0.002 c 0.0302,0.0784 0.04,0.10566 0.0312,0.082 0.0682,0.1841 0.13297,0.37702 0.19336,0.57813 0.0378,0.12556 0.0686,0.23552 0.0957,0.33789 0.004,0.0135 0.008,0.0318 0.0117,0.0449 l 0.002,0.01 c 0.0328,0.12876 0.0635,0.26418 0.0937,0.4082 0.005,0.0259 0.015,0.0698 0.0273,0.13281 0.0233,0.11927 0.0445,0.23598 0.0625,0.34961 l 0.002,0.0137 0.002,0.0117 c 0.004,0.0261 0.008,0.0443 0.01,0.0566 0.0215,0.14374 0.0395,0.28923 0.0547,0.43555 v 0.004 0.006 c -10e-4,-0.01 0.001,0.0214 0.008,0.0957 l 0.002,0.004 v 0.002 c 0.0108,0.11637 0.019,0.22897 0.0254,0.33789 V 177 l 0.002,0.008 c 0.001,0.0155 0.002,0.0648 0.006,0.14649 0.007,0.14797 0.0117,0.28911 0.0117,0.42773 v 9.78125 H 160.92773 132.29102 103.65625 93.875 v -9.78125 c 0,-3.90177 2.235821,-7.21429 5.488281,-8.79687 l 0.111328,-0.0547 0.105469,-0.0684 c 8.345612,-5.4525 13.438992,-14.70018 13.587892,-24.66797 l 0.002,-0.0859 -0.006,-0.0879 c -0.55349,-7.64419 3.48752,-14.87172 10.28906,-18.40429 2.72094,-1.41332 5.74055,-2.15291 8.80665,-2.15821 z M 170.3418,174.75 c 0.005,0.0898 0.0117,0.0653 0.0215,0.12695 0.002,0.0126 0.002,0.0292 0.004,0.0391 z"
           id="path4392" />
      </g>
      <g
         id="g4400"
         style="display:inline;opacity:1"
         inkscape:label="middle shuttle thrusters">
        <path
           style="color:#000000;font-style:normal;font-variant:normal;font-weight:normal;font-stretch:normal;font-size:medium;line-height:normal;font-family:sans-serif;font-variant-ligatures:normal;font-variant-position:normal;font-variant-caps:normal;font-variant-numeric:normal;font-variant-alternates:normal;font-variant-east-asian:normal;font-feature-settings:normal;font-variation-settings:normal;text-indent:0;text-align:start;text-decoration:none;text-decoration-line:none;text-decoration-style:solid;text-decoration-color:#000000;letter-spacing:normal;word-spacing:normal;text-transform:none;writing-mode:lr-tb;direction:ltr;text-orientation:mixed;dominant-baseline:auto;baseline-shift:baseline;text-anchor:start;white-space:normal;shape-padding:0;shape-margin:0;inline-size:0;clip-rule:nonzero;display:inline;overflow:visible;visibility:visible;isolation:auto;mix-blend-mode:normal;color-interpolation:sRGB;color-interpolation-filters:linearRGB;solid-color:#000000;solid-opacity:1;vector-effect:none;fill:#ffd369;fill-opacity:1;fill-rule:nonzero;stroke:none;stroke-width:3.96875;stroke-linecap:butt;stroke-linejoin:miter;stroke-miterlimit:4;stroke-dasharray:none;stroke-dashoffset:0;stroke-opacity:1;color-rendering:auto;image-rendering:auto;shape-rendering:auto;text-rendering:auto;enable-background:accumulate;stop-color:#000000;stop-opacity:1"
           d="m 123.78056,166.36021 h 17.02221 l 8.46667,33.51698 h -33.95555 z"
           id="path4402" />
        <path
           style="color:#000000;font-style:normal;font-variant:normal;font-weight:normal;font-stretch:normal;font-size:medium;line-height:normal;font-family:sans-serif;font-variant-ligatures:normal;font-variant-position:normal;font-variant-caps:normal;font-variant-numeric:normal;font-variant-alternates:normal;font-variant-east-asian:normal;font-feature-settings:normal;font-variation-settings:normal;text-indent:0;text-align:start;text-decoration:none;text-decoration-line:none;text-decoration-style:solid;text-decoration-color:#000000;letter-spacing:normal;word-spacing:normal;text-transform:none;writing-mode:lr-tb;direction:ltr;text-orientation:mixed;dominant-baseline:auto;baseline-shift:baseline;text-anchor:start;white-space:normal;shape-padding:0;shape-margin:0;inline-size:0;clip-rule:nonzero;display:inline;overflow:visible;visibility:visible;isolation:auto;mix-blend-mode:normal;color-interpolation:sRGB;color-interpolation-filters:linearRGB;solid-color:#000000;solid-opacity:1;vector-effect:none;fill:#222831;fill-opacity:1;fill-rule:nonzero;stroke:none;stroke-width:3.96875;stroke-linecap:butt;stroke-linejoin:miter;stroke-miterlimit:4;stroke-dasharray:none;stroke-dashoffset:0;stroke-opacity:1;color-rendering:auto;image-rendering:auto;shape-rendering:auto;text-rendering:auto;enable-background:accumulate;stop-color:#000000;stop-opacity:1"
           d="m 122.23438,164.375 -0.37696,1.5 -9.0918,35.98633 h 39.05274 l -9.4707,-37.48633 z m 3.09179,3.96875 h 13.93164 l 7.46289,29.54883 h -28.85742 z"
           id="path4404" />
      </g>
      <path
         style="color:#000000;font-style:normal;font-variant:normal;font-weight:normal;font-stretch:normal;font-size:medium;line-height:normal;font-family:sans-serif;font-variant-ligatures:normal;font-variant-position:normal;font-variant-caps:normal;font-variant-numeric:normal;font-variant-alternates:normal;font-variant-east-asian:normal;font-feature-settings:normal;font-variation-settings:normal;text-indent:0;text-align:start;text-decoration:none;text-decoration-line:none;text-decoration-style:solid;text-decoration-color:#000000;letter-spacing:normal;word-spacing:normal;text-transform:none;writing-mode:lr-tb;direction:ltr;text-orientation:mixed;dominant-baseline:auto;baseline-shift:baseline;text-anchor:start;white-space:normal;shape-padding:0;shape-margin:0;inline-size:0;clip-rule:nonzero;display:inline;overflow:visible;visibility:visible;isolation:auto;mix-blend-mode:normal;color-interpolation:sRGB;color-interpolation-filters:linearRGB;solid-color:#000000;solid-opacity:1;vector-effect:none;fill:#ffd369;fill-opacity:1;fill-rule:nonzero;stroke:#000000;stroke-width:0;stroke-linecap:butt;stroke-linejoin:miter;stroke-miterlimit:4;stroke-dasharray:none;stroke-dashoffset:0;stroke-opacity:1;color-rendering:auto;image-rendering:auto;shape-rendering:auto;text-rendering:auto;enable-background:accumulate;stop-color:#000000;stop-opacity:1"
         d="m 132.29166,105.43646 c -4.71522,0 -8.5111,3.79588 -8.5111,8.51111 v 52.94198 h 17.02221 v -52.94198 c 0,-4.71523 -3.79588,-8.51111 -8.51111,-8.51111 z"
         id="path4396" />
      <path
         style="color:#000000;font-style:normal;font-variant:normal;font-weight:normal;font-stretch:normal;font-size:medium;line-height:normal;font-family:sans-serif;font-variant-ligatures:normal;font-variant-position:normal;font-variant-caps:normal;font-variant-numeric:normal;font-variant-alternates:normal;font-variant-east-asian:normal;font-feature-settings:normal;font-variation-settings:normal;text-indent:0;text-align:start;text-decoration:none;text-decoration-line:none;text-decoration-style:solid;text-decoration-color:#000000;letter-spacing:normal;word-spacing:normal;text-transform:none;writing-mode:lr-tb;direction:ltr;text-orientation:mixed;dominant-baseline:auto;baseline-shift:baseline;text-anchor:start;white-space:normal;shape-padding:0;shape-margin:0;inline-size:0;clip-rule:nonzero;display:inline;overflow:visible;visibility:visible;isolation:auto;mix-blend-mode:normal;color-interpolation:sRGB;color-interpolation-filters:linearRGB;solid-color:#000000;solid-opacity:1;vector-effect:none;fill:#222831;fill-opacity:1;fill-rule:nonzero;stroke:#000000;stroke-width:0;stroke-linecap:butt;stroke-linejoin:miter;stroke-miterlimit:4;stroke-dasharray:none;stroke-dashoffset:0;stroke-opacity:1;color-rendering:auto;image-rendering:auto;shape-rendering:auto;text-rendering:auto;enable-background:accumulate;stop-color:#000000;stop-opacity:1"
         d="m 132.29102,103.45117 c -5.78021,0 -10.49414,4.71588 -10.49414,10.4961 v 54.92578 h 20.99023 v -54.92578 c 0,-5.78022 -4.71588,-10.4961 -10.49609,-10.4961 z m 0,3.96875 c 3.65024,0 6.52734,2.8771 6.52734,6.52735 v 50.95703 h -13.05274 v -50.95703 c 1e-5,-3.65025 2.87516,-6.52735 6.5254,-6.52735 z"
         id="path4398" />
      <path
         style="fill:#222831;fill-opacity:1;fill-rule:nonzero;stroke:none;stroke-width:3.96875;stroke-miterlimit:4;stroke-dasharray:none;stroke-opacity:1"
         id="path4429"
         sodipodi:type="arc"
         sodipodi:cx="132.29167"
         sodipodi:cy="113.94743"
         sodipodi:rx="5.291667"
         sodipodi:ry="5.291667"
         sodipodi:start="3.1415927"
         sodipodi:end="0"
         sodipodi:open="true"
         sodipodi:arc-type="arc"
         d="m 127,113.94743 a 5.291667,5.291667 0 0 1 5.29167,-5.29166 5.291667,5.291667 0 0 1 5.29167,5.29166" />
    </g>
  </g>
</svg>
